# AST/ASF file generated using VICON BodyLanguage
# -----------------------------------------------
:version 1.10
:name VICON
:units
  mass 1.0
  length 0.45
  angle deg
:documentation
   .ast/.asf automatically generated from VICON data using
   VICON BodyBuilder and BodyLanguage model FoxedUp or BRILLIANT.MOD
:root
   order TX TY TZ RX RY RZ
   axis XYZ
   position 0 0 0  
   orientation 0 -0 0 
:bonedata
  begin
     id 1 
     name lhipjoint
     direction 0.500677 -0.737119 0.453848 
     length 2.34727 
     axis 0 -0 0  XYZ
  end
  begin
     id 2 
     name lfemur
     direction 0.34202 -0.939693 0  
     length 7.53653  
     axis 0 -0 20  XYZ
    dof rx ry rz
    limits (-160.0 20.0)
           (-70.0 70.0)
           (-60.0 70.0)
  end
  begin
     id 3 
     name ltibia
     direction 0.34202 -0.939693 0   
     length 6.85572   
     axis 0 -0 20   XYZ
    dof rx
    limits (-10.0 170.0)
  end
  begin
     id 4 
     name lfoot
     direction 0.155313 -0.426718 0.890949   
     length 2.18324   
     axis -90 -1.13533e-015 20   XYZ
    dof rx rz
    limits (-45.0 90.0)
           (-70.0 20.0)
  end
  begin
     id 5 
     name ltoes
     direction 1.53474e-011 -4.21647e-011 1   
     length 1.06748   
     axis -90 -1.13533e-015 20   XYZ
    dof rx
    limits (-90.0 20.0)
  end
  begin
     id 6 
     name rhipjoint
     direction -0.632471 -0.659587 0.406111   
     length 2.62319  
     axis 0 -0 0  XYZ 
  end
  begin
     id 7 
     name rfemur
     direction -0.34202 -0.939693 0   
     length 7.21735   
     axis 0 -0 -20   XYZ
    dof rx ry rz
    limits (-160.0 20.0)
           (-70.0 70.0)
           (-70.0 60.0)
  end
  begin
     id 8 
     name rtibia
     direction -0.34202 -0.939693 0   
     length 7.02558   
     axis 0 -0 -20   XYZ
    dof rx
    limits (-10.0 170.0)
 end
 begin
     id 9 
     name rfoot
     direction -0.16057 -0.441164 0.882945   
     length 2.10014  
     axis -90 1.13533e-015 -20   XYZ
    dof rx rz
    limits (-45.0 90.0)
           (-20.0 70.0)
  end
  begin
     id 10 
     name rtoes
     direction -1.53553e-011 -4.2192e-011 1   
     length 1.02554   
     axis -90 1.13533e-015 -20   XYZ
    dof rx
    limits (-90.0 20.0)
  end
  begin
     id 11 
     name lowerback
     direction 0.0401429 0.998861 -0.0258085   
     length 1.80848   
     axis 0 -0 0   XYZ
    dof rx ry rz
    limits (-20.0 45.0)
           (-30.0 30.0)
           (-30.0 30.0)
  end
  begin
     id 12 
     name upperback
     direction -0.0130978 0.999914 -0.000352645   
     length 1.8116   
     axis 0 -0 0   XYZ
    dof rx ry rz
    limits (-20.0 45.0)
           (-30.0 30.0)
           (-30.0 30.0)
  end
  begin
     id 13 
     name thorax
     direction -0.0300198 0.999453 0.0138573   
     length 1.81778   
     axis 0 -0 0   XYZ
    dof rx ry rz
    limits (-20.0 45.0)
           (-30.0 30.0)
           (-30.0 30.0)
  end
  begin
     id 14 
     name lowerneck
     direction -0.0401726 0.999191 -0.00173647   
     length 2.10594   
     axis 0 -0 0   XYZ
    dof rx ry rz
    limits (-20.0 45.0)
           (-30.0 30.0)
           (-30.0 30.0)
  end
  begin
     id 15 
     name upperneck
     direction 0.0119835 0.998501 0.0534085   
     length 2.07325   
     axis 0 -0 0   XYZ
    dof rx ry rz
    limits (-20.0 45.0)
           (-30.0 30.0)
           (-30.0 30.0)
  end
  begin
     id 16
     name head
     direction 0.00628309 0.999826 0.0175921  
     length 2.15096  
     axis 0 -0 0   XYZ
    dof rx ry rz
    limits (-20.0 45.0)
           (-30.0 30.0)
           (-30.0 30.0)
  end
  begin
     id 17 
     name lclavicle
     direction 0.895501 0.429681 -0.115981  
     length 4.18092  
     axis 0 -0 0   XYZ
    dof ry rz
    limits (-20.0 10.0)
           (0.0 20.0)
  end
  begin
     id 18 
     name lhumerus
     direction 1 -4.48961e-011 -3.38433e-028   
     length 5.77237   
     axis 180 -30 -90   XYZ
    dof rx ry rz
    limits (-60.0 90.0)
           (-90.0 90.0)
           (-90.0 90.0)
  end
  begin
     id 19
     name lradius
     direction 1 -4.4901e-011 1.11983e-026   
     length 2.91878   
     axis 180 -30 -90   XYZ
    dof rx
    limits (-10.0 170.0)
  end
  begin
     id 20
     name lwrist
     direction 1 -4.48934e-011 1.88176e-026   
     length 1.45939   
     axis -1.23311e-014 90 90   XYZ
    dof ry
    limits (-180.0 0.0)
 end
  begin
     id 21 
     name lhand
     direction 1 -4.4895e-011 3.76352e-026   
     length 1.06566   
     axis -2.40147e-014 90 90   XYZ
    dof rx rz
    limits (-90.0 90.0)
           (-45.0 45.0)
  end
  begin
     id 22 
     name lfingers
     direction 1 -4.49005e-011 7.52705e-026   
     length 0.859162   
     axis -4.80295e-014 90 90   XYZ
    dof rx
    limits (0.0 90.0)
  end
  begin
     id 23
     name lthumb
     direction 0.707107 -6.34885e-011 0.707107   
     length 1.23359   
     axis -90 45 -9.86935e-015   XYZ
    dof rx rz
    limits (-45.0 45.0)
           (-45.0 45.0)
  end
  begin
     id 24 
     name rclavicle
     direction -0.91006 0.40451 -0.0903492   
     length 4.23293  
     axis 0 -0 0   XYZ 
    dof ry rz
    limits (-10.0 20.0)
           (-20.0 0.0)
  end
  begin
     id 25 
     name rhumerus
     direction -1 -4.4897e-011 1.7415e-027  
     length 5.49854   
     axis 180 30 90   XYZ
    dof rx ry rz
    limits (-90.0 60.0)
           (-90.0 90.0)
           (-90.0 90.0)
  end
  begin
     id 26 
     name rradius
     direction -1 -4.48963e-011 1.21259e-026   
     length 3.1186   
     axis 180 30 90   XYZ
    dof rx
    limits (-10.0 170.0)
  end
  begin
     id 27 
     name rwrist
     direction -1 -4.48967e-011 1.88176e-026   
     length 1.5593   
     axis -1.23311e-014 -90 -90   XYZ
    dof ry
    limits (-180.0 0.0)
  end
  begin
     id 28
     name rhand
     direction -1 -4.4895e-011 3.76352e-026   
     length 0.71207   
     axis -2.40147e-014 -90 -90   XYZ
    dof rx rz
    limits (-90.0 90.0)
           (-45.0 45.0)
  end
  begin
     id 29
     name rfingers
     direction -1 -4.49005e-011 7.52705e-026   
     length 0.574089   
     axis -4.80295e-014 -90 -90   XYZ
    dof rx
    limits (0.0 90.0)
  end
  begin
     id 30
     name rthumb
     direction -0.707107 -6.34982e-011 0.707107   
     length 0.824281   
     axis -90 -45 9.86935e-015   XYZ
    dof rx rz
    limits (-45.0 45.0)
           (-45.0 45.0)
  end
:hierarchy
  begin
    root lhipjoint rhipjoint lowerback
    lhipjoint lfemur
    lfemur ltibia
    ltibia lfoot
    lfoot ltoes
    rhipjoint rfemur
    rfemur rtibia
    rtibia rfoot
    rfoot rtoes
    lowerback upperback
    upperback thorax
    thorax lowerneck lclavicle rclavicle
    lowerneck upperneck
    upperneck head
    lclavicle lhumerus
    lhumerus lradius
    lradius lwrist
    lwrist lhand lthumb
    lhand lfingers
    rclavicle rhumerus
    rhumerus rradius
    rradius rwrist
    rwrist rhand rthumb
    rhand rfingers
  end

#!OML:ASF C:\ViconDB\ViconDB\414\Spring2016\042216\male.ASF
:FULLY-SPECIFIED
:DEGREES
1
root -44.7515 16.9858 13.478 -164.982 85.6378 -165.081
lowerback -3.23089 -1.7399 4.00059
upperback -0.240429 -2.4501 -0.634561
thorax 1.36794 -1.19782 -2.99745
lowerneck 0 -0 0
upperneck 0 -0 0
head 0 -0 0
rclavicle 3.36754e-014 4.17448e-015
rhumerus -33.0184 -5.20605 -90.4895
rradius 29.5128
rwrist 37.2504
rhand 13.3306 -18.3406
rfingers 7.12502
rthumb 38.278 -44.0636
lclavicle 3.36754e-014 4.17448e-015
lhumerus -40.0819 18.9015 81.2732
lradius 33.3778
lwrist -20.1943
lhand -10.9736 8.14675
lfingers 7.12502
lthumb 15.0459 37.58
rfemur -10.2689 0.319321 20.2193
rtibia 28.0031
rfoot -19.2815 0.337733
rtoes -6.2823
lfemur -9.11394 -2.71881 -18.7622
ltibia 28.4302
lfoot -28.1959 8.72276
ltoes -15.5676
2
root -44.7521 16.9815 13.4792 -164.866 85.6263 -164.96
lowerback -3.23958 -1.7538 4.00135
upperback -0.236637 -2.46966 -0.593547
thorax 1.37691 -1.20735 -2.95676
lowerneck -3.52693 1.44013 -4.66217
upperneck 4.3113 1.93647 5.39874
head 1.88562 1.02555 2.60655
rclavicle 1.72508e-014 4.37326e-015
rhumerus -33.0539 -5.52312 -90.1981
rradius 29.3647
rwrist 38.3159
rhand 12.5469 -17.7003
rfingers 7.12502
rthumb 37.5378 -43.6238
lclavicle 1.72508e-014 4.37326e-015
lhumerus -40.218 19.1726 81.0341
lradius 33.3844
lwrist -20.8014
lhand -12.1421 7.94081
lfingers 7.12502
lthumb 13.9201 37.4549
rfemur -10.2995 0.232184 20.2253
rtibia 28.0594
rfoot -19.2691 0.51771
rtoes -6.31043
lfemur -9.09 -2.94995 -18.7559
ltibia 28.3841
lfoot -28.1488 8.91681
ltoes -15.5504
3
root -44.7525 16.9845 13.4799 -165.169 85.6373 -165.267
lowerback -3.25447 -1.74151 4.03919
upperback -0.236306 -2.45474 -0.632668
thorax 1.38349 -1.19948 -3.01828
lowerneck -3.49828 1.49325 -4.4121
upperneck 4.31541 2.01204 4.9431
head 1.87995 1.0555 2.40887
rclavicle 1.75365e-014 -9.34288e-015
rhumerus -33.1351 -5.91528 -89.9445
rradius 29.2448
rwrist 39.136
rhand 11.9659 -17.5244
rfingers 7.12502
rthumb 36.9885 -43.5918
lclavicle 1.75365e-014 -9.34288e-015
lhumerus -40.2826 19.3942 80.7131
lradius 33.294
lwrist -21.4969
lhand -12.5 7.80704
lfingers 7.12502
lthumb 13.5751 37.3445
rfemur -10.3218 0.0690307 20.1888
rtibia 28.061
rfoot -19.265 0.681259
rtoes -6.34427
lfemur -9.0831 -3.0177 -18.807
ltibia 28.3768
lfoot -28.1059 9.10389
ltoes -15.8151
4
root -44.754 16.9827 13.48 -165.468 85.6265 -165.583
lowerback -3.25937 -1.75381 4.04447
upperback -0.249333 -2.47137 -0.61927
thorax 1.37184 -1.2082 -3.00793
lowerneck -3.43949 1.56001 -4.25717
upperneck 4.27692 2.11222 4.45485
head 1.8542 1.09498 2.21857
rclavicle 2.77895e-014 6.55989e-015
rhumerus -33.1912 -6.09239 -89.717
rradius 29.1665
rwrist 39.2298
rhand 11.1155 -17.3727
rfingers 7.12502
rthumb 36.1836 -43.6439
lclavicle 2.77895e-014 6.55989e-015
lhumerus -40.3972 19.6307 80.5087
lradius 33.3141
lwrist -22.0594
lhand -13.4868 8.08077
lfingers 7.12502
lthumb 12.6239 37.6793
rfemur -10.3579 -0.057983 20.1574
rtibia 28.0795
rfoot -19.2546 0.732388
rtoes -6.35978
lfemur -9.09029 -3.09109 -18.819
ltibia 28.357
lfoot -28.1188 9.013
ltoes -15.4248
5
root -44.7548 16.9851 13.4819 -165.753 85.6398 -165.886
lowerback -3.28708 -1.76178 4.01371
upperback -0.249367 -2.48244 -0.588041
thorax 1.38911 -1.21352 -2.95999
lowerneck -3.38882 1.63012 -4.1947
upperneck 4.1983 2.21912 4.04965
head 1.81659 1.13872 2.07339
rclavicle -1.51247e-014 3.42904e-015
rhumerus -33.2224 -6.27551 -89.4629
rradius 29.1345
rwrist 39.3228
rhand 10.8091 -17.1123
rfingers 7.12502
rthumb 35.8934 -43.4549
lclavicle -1.51247e-014 3.42904e-015
lhumerus -40.3528 20.0658 80.247
lradius 33.1017
lwrist -22.6122
lhand -14.5581 7.97645
lfingers 7.12502
lthumb 11.5909 37.6359
rfemur -10.3735 -0.0756014 20.1248
rtibia 28.0788
rfoot -19.1693 0.883843
rtoes -6.16637
lfemur -9.124 -2.97302 -18.8325
ltibia 28.3526
lfoot -28.1141 8.93016
ltoes -15.4918
6
root -44.7557 16.9842 13.4829 -166.04 85.6609 -166.181
lowerback -3.27478 -1.76233 4.02955
upperback -0.267525 -2.48275 -0.589969
thorax 1.36276 -1.21442 -2.96997
lowerneck -3.34913 1.70207 -4.10644
upperneck 4.17831 2.32529 3.67983
head 1.80073 1.18384 1.93727
rclavicle -5.12259e-014 6.70898e-015
rhumerus -33.2741 -6.57448 -89.2424
rradius 28.9643
rwrist 39.4215
rhand 10.0126 -16.7371
rfingers 7.12502
rthumb 35.1383 -43.2607
lclavicle -5.12259e-014 6.70898e-015
lhumerus -40.4172 20.3545 79.9879
lradius 33.098
lwrist -22.9482
lhand -14.5418 7.93266
lfingers 7.12502
lthumb 11.6066 37.5912
rfemur -10.396 -0.131904 20.0962
rtibia 28.1009
rfoot -19.1584 0.952513
rtoes -6.18516
lfemur -9.1234 -2.93752 -18.8471
ltibia 28.3371
lfoot -28.1155 8.88186
ltoes -15.4635
